# xmcd
#
# Track frame offsets:
#	150
#	14317
#	31757
#	44237
#	58417
#	70855
#	87645
#	100695
#	120020
#	133455
#	144782
#	154195
#
# Disc length: 2207 seconds
#
# Revision: 1
# Processed by: cddbd v1.4b41PL1 Copyright (c) Steve Scherf et al.
# Submitted via: audiograbber 1.80
#
DISCID=a4089d0c
DTITLE=Anne Sylvestre - Les Pierres dans mon Jardin
DYEAR=1900
DGENRE=
TTITLE0=Les Pierres dans mon Jardin
TTITLE1=Non tu n'as pas de nom
TTITLE2=La p'tite hirondelle
TTITLE3=Lettre ouverte à Elise
TTITLE4=Plus personne à Paris
TTITLE5=Je suis un dinosaure
TTITLE6=Me v'là
TTITLE7=Un mur pour pleurer
TTITLE8=La Romanée Conti
TTITLE9=Berceuse aux petits vampires
TTITLE10=Fausse sortie
TTITLE11=Regrets d'une punaise
EXTD=
EXTT0=
EXTT1=
EXTT2=
EXTT3=
EXTT4=
EXTT5=
EXTT6=
EXTT7=
EXTT8=
EXTT9=
EXTT10=
EXTT11=
PLAYORDER=
